<svg width="71" height="77" viewBox="0 0 71 77" fill="none" xmlns="http://www.w3.org/2000/svg">
<path fill-rule="evenodd" clip-rule="evenodd" d="M41.2315 1.32956L63.4109 11.8119C68.1582 14.0549 71 18.5187 71 23.733V40.6159C71 45.8266 68.3766 50.7412 63.4109 52.5375L41.0259 60.6407V48.7477L53.1373 45.0414C56.3462 44.0605 57.9329 40.8023 57.9329 37.5089V26.8396C57.9329 23.5471 56.137 20.7238 53.1373 19.307L39.1218 12.6837C36.7527 11.5645 34.2483 11.564 31.8787 12.6837L17.8627 19.307C14.863 20.7243 13.0681 23.545 13.0681 26.8396V37.5089C13.0681 40.7998 15.2132 43.1145 17.8627 45.0414L41.0387 61.9089L41.1366 76.0714L7.58863 52.5375C3.33855 49.556 0 45.8302 0 40.6159V23.733C0 18.5187 2.84176 14.0554 7.58863 11.8119L29.769 1.32956C33.5193 -0.443188 37.4812 -0.443188 41.2315 1.32956Z" fill="#0A32F8"/>
</svg>
